<?xml version="1.0" encoding="UTF-8"?>
<svg id="Camada_1" data-name="Camada 1" xmlns="http://www.w3.org/2000/svg" xmlns:xlink="http://www.w3.org/1999/xlink" viewBox="0 0 350 251.56">
  <defs>
    <style>
      .cls-1 {
        fill: none;
      }

      .cls-2 {
        clip-path: url(#clippath-1);
      }

      .cls-3 {
        fill-rule: evenodd;
      }

      .cls-3, .cls-4 {
        fill: #006b3c;
      }

      .cls-5 {
        clip-path: url(#clippath);
      }
    </style>
    <clipPath id="clippath">
      <rect class="cls-1" y="201.3" width="350" height="50.26"/>
    </clipPath>
    <clipPath id="clippath-1">
      <rect class="cls-1" x="193.27" width="141.79" height="141.79"/>
    </clipPath>
  </defs>
  <g class="cls-5">
    <path class="cls-4" d="M24.89,294.42c38.77-32.21,76.07-66.48,124.42-83.49-19,27.11-38.08,54.4-57.33,81.51-1.3,1.73-3.97,3.45-6.04,3.45-20.03.26-40.06.17-60.09.17-.35-.52-.6-1.12-.95-1.64Z"/>
    <path class="cls-4" d="M198.7,209.54c31.6,10.62,101.8,57.94,127.87,86.08-2.07.17-3.63.52-5.18.52-17.87,0-35.75-.35-53.7,0-5.35.09-8.2-1.99-11.05-6.04-16.32-23.4-32.9-46.62-49.47-69.94-2.33-3.37-5.09-6.48-8.46-10.62Z"/>
    <path class="cls-4" d="M241.1,295.88h-54.4c-2.24-30.22-4.58-60.18-6.91-91.7,3.71,3.02,6.82,5.09,9.32,7.6,12.95,13.21,45.07,65.19,51.98,84.1Z"/>
    <path class="cls-4" d="M109.16,295.54c18.3-31.69,32.46-65.19,59.49-90.31.6.17,1.3.35,1.9.52-2.16,29.79-4.32,59.58-6.56,89.71-18.05.09-35.83.09-54.83.09Z"/>
    <path class="cls-4" d="M123.67,214.29c-44.38,20.72-82.46,48.61-121.74,77.36,0-13.9-.17-26.68.26-39.37.09-1.64,3.02-3.8,5.18-4.75,33.5-15.37,68.64-25.13,104.91-31.17,3.28-.6,6.65-1.21,11.4-2.07Z"/>
    <path class="cls-4" d="M348.42,291.74c-39.98-28.92-78.66-56.73-122.17-77.71,41.19,6.48,80.47,17.44,117.86,34.62,3.11,1.47,4.49,3.11,4.4,6.82-.35,11.4-.09,22.97-.09,36.26Z"/>
    <path class="cls-4" d="M213.9,207.3c38.85-2.5,77.62-1.99,116.13,3.71,5.78.86,13.47.52,16.66,3.97,3.02,3.28,1.3,10.97,1.55,16.75.09,2.59,0,5.18,0,9.24-43.69-18.39-88.41-28.67-134.35-33.67Z"/>
    <path class="cls-4" d="M1.84,238.99c0-6.73.17-13.73-.09-20.64-.09-3.45,1.47-4.23,4.49-4.84,30.65-6.48,61.73-7.68,92.9-7.68,11.66,0,23.4,0,34.97,1.38-22.19,3.89-44.55,6.73-66.4,12-21.93,5.18-43.34,12.87-65.88,19.77Z"/>
  </g>
  <g>
    <path class="cls-3" d="M293.26,175.93c0-.23,0-.45-.01-.68v-.43c-.01-.06-.02-.12-.02-.18-.01-.53-.04-1.05-.07-1.58-.02-.25-.03-.49-.05-.74-.48-6.55-2.04-13.02-4.6-19.07-.83-1.95-1.77-3.87-2.79-5.73-1.93-3.48-4.16-6.72-6.68-9.69-.15-.18-.31-.36-.48-.55-.27-.34-.56-.65-.86-.98-.2-.22-.39-.43-.59-.64h0c-3.91-4.22-8.4-7.83-13.34-10.75h0c-.88-.54-1.79-1.04-2.72-1.52-.2-.11-.43-.22-.65-.32-3.24-1.64-6.67-3.02-10.22-4.06-.06-.01-.1-.04-.14-.04-.45-.14-.93-.28-1.47-.42-.48-.13-.96-.25-1.43-.36-9.19-2.22-18.43-2.18-27.12-.23-8.82,1.98-17.08,5.92-24.13,11.47h0c-1.95,1.53-3.82,3.19-5.57,4.95-.24.24-.47.48-.7.72-.15.16-.31.32-.46.48-3.91,4.18-7.27,8.94-9.9,14.2l-.04.08s-.03.05-.04.07c-.04.09-.1.2-.16.32-.12.25-.24.5-.36.75-.01.02-.02.04-.02.04-.13.27-.25.54-.37.8l-.18.43c-.64,1.44-1.22,2.91-1.74,4.41-.08.21-.16.42-.23.64-.18.53-.36,1.07-.53,1.61-.12.37-.23.76-.34,1.13-.11.38-.23.77-.32,1.15-.36,1.32-.66,2.65-.91,3.98-.06.33-.12.67-.18,1-.12.67-.23,1.34-.33,2.01-.05.34-.1.67-.13,1.01-.04.28-.07.55-.1.84-.04.27-.06.55-.09.82v.11c-.04.3-.06.6-.1.9l-.07,1c-.01.3-.04.59-.05.88-.01.33-.03.64-.04.96-.01.33-.03.64-.03.96,0,.37,0,.74,0,1.1h6.94v-.08c0-4.53.58-9.13,1.8-13.71.52-1.94,1.14-3.84,1.85-5.66.46-1.17.94-2.31,1.47-3.41,0-.02,0-.04.01-.05.05-.11.1-.22.15-.32,2.51-5.23,5.8-9.93,9.68-13.94.62-.65,1.25-1.27,1.91-1.88.17-.16.34-.32.5-.47.2-.18.39-.36.59-.53.01,0,.01-.01.03-.01.25-.22.5-.44.76-.66h0c6.87-5.86,15.14-9.88,24.07-11.64,3.25-.64,6.58-.98,9.96-1h.41c3.15,0,6.35.3,9.56.89.21.04.42.08.65.12.49.1.97.19,1.45.31.15.03.29.06.44.09.58.13,1.13.28,1.69.42.66.18,1.32.36,1.98.57.48.16.96.31,1.43.47.72.24,1.45.5,2.16.79.37.14.74.29,1.12.44.08.03.16.06.23.1.25.11.49.21.73.32.24.1.48.2.72.31,1.84.83,3.62,1.75,5.34,2.78,2.35,1.4,4.57,2.97,6.65,4.71,2.1,1.73,4.04,3.64,5.84,5.68-.09-.07-.18-.14-.27-.23-.03-.04-.06-.05-.09-.08-.04-.03-.06-.05-.1-.07,6.62,7.74,9.22,17.72,7.82,27.22-.02-.1-.04-.18-.06-.28-.01-.1-.03-.2-.06-.29,0-.06-.02-.12-.02-.18-.07-.34-.14-.67-.21-1.02t0-.02c-.08-.37-.18-.74-.26-1.11,0,0,0-.01-.01-.02-.09-.36-.18-.73-.26-1.1-.11-.38-.23-.76-.33-1.14-.1-.32-.2-.63-.3-.94-.02-.1-.06-.19-.09-.29-.1-.31-.2-.63-.31-.94-.27-.74-.55-1.49-.84-2.23-.43-1.05-.89-2.07-1.4-3.1-.45-.91-.91-1.8-1.43-2.68-.14-.24-.27-.48-.42-.72-.17-.27-.34-.54-.51-.81,0-.01,0-.01,0-.01-.15-.25-.3-.49-.47-.72-.16-.26-.33-.51-.5-.77-.12-.16-.23-.32-.34-.48-.01-.02-.01-.03-.02-.04-.22-.31-.45-.64-.68-.96-.2-.27-.39-.52-.59-.78-.2-.25-.4-.5-.6-.77-.2-.25-.41-.51-.62-.76-.04-.04-.06-.07-.09-.1-.12-.15-.24-.29-.37-.44-.25-.28-.49-.55-.72-.82-.06-.07-.12-.13-.17-.19-.11-.12-.23-.24-.34-.37-.14-.15-.28-.3-.43-.46-.14-.14-.28-.29-.42-.44-.14-.15-.29-.3-.44-.45-.15-.14-.29-.29-.44-.42-.14-.14-.3-.29-.44-.44-.16-.14-.31-.28-.47-.42-.12-.12-.24-.23-.37-.34-.05-.06-.11-.1-.16-.15-.42-.39-.85-.77-1.29-1.12-.02-.01-.03-.03-.05-.04-.27-.23-.53-.45-.8-.66-.25-.2-.51-.4-.76-.6-.27-.2-.53-.39-.79-.58-.31-.24-.64-.46-.96-.69,0,0-.01,0-.03-.02-.16-.11-.32-.22-.48-.33-.25-.17-.5-.34-.76-.5-.24-.16-.49-.31-.72-.47-.04-.03-.08-.05-.12-.07-.23-.15-.47-.29-.71-.44-.23-.14-.48-.28-.71-.42-.89-.5-1.78-.98-2.68-1.43-1.03-.5-2.06-.96-3.11-1.4-.37-.14-.74-.29-1.11-.42-.37-.14-.74-.28-1.11-.41-.04-.01-.07-.03-.11-.04-.01.58-.01,1.15-.01,1.73,0,.49,0,.98,0,1.49.01.88.05,1.75.1,2.64,0,.07,0,.16.02.23.02.48.05.96.07,1.43.06.89.14,1.77.22,2.66.24,2.4.6,4.8,1.05,7.17.31,1.64.66,3.27,1.08,4.89.12.48.25.96.4,1.45.29,1.13.62,2.26.98,3.38.25.79.5,1.56.78,2.33.44,1.29.93,2.56,1.44,3.82.66,1.64,1.37,3.26,2.13,4.85.65,1.35,1.33,2.68,2.05,3.98.25.47.52.92.76,1.38,1.1,1.94,2.28,3.84,3.54,5.68.16.25.34.49.5.73.88,1.26,1.79,2.5,2.74,3.71.94,1.2,1.9,2.37,2.89,3.52.83.96,1.69,1.89,2.57,2.83.37.41.77.8,1.16,1.19,1.2,1.22,2.44,2.4,3.73,3.55.41.36.81.72,1.23,1.07h0c.94.83,1.9,1.61,2.87,2.37,0,0,.02.01.03.01,0,0,.01.02.02.02t0,0c1.82,1.43,3.69,2.78,5.63,4.06h.05s.2-.37.2-.37c0,0,0-.01,0-.02.01-.02.02-.04.04-.06.11-.24.24-.5.31-.66.03-.04.05-.09.07-.13h.02l.1-.23.36-.81.1-.18c.06-.14.12-.29.18-.44.1-.22.19-.44.28-.66.13-.3.25-.61.37-.91.35-.86.67-1.73.97-2.61.1-.29.2-.58.3-.86.14-.4.26-.79.38-1.19.12-.38.23-.76.34-1.15.12-.38.23-.75.31-1.14.12-.43.23-.85.34-1.28.06-.23.11-.47.16-.7.08-.34.16-.66.23-1,.22-1,.41-1.99.57-3,.1-.67.2-1.34.28-2.01.06-.4.1-.8.14-1.2.03-.19.04-.38.06-.58h.02s0,.01,0,.01l.04-.5.02-.31v-.12s0,0,0,0l.04-.66.04-.5c.03-.42.06-.83.06-1.26,0-.15.01-.31.01-.47.01-.32.02-.64.02-.96.01-.29.01-.58.01-.87,0-.27,0-.57-.01-.87Z"/>
    <path class="cls-3" d="M156.36,129.44l-2.7,6.68-2.45,6.05-18.05,44.69-6.79,16.79h-28.77l4.04-9.99,23.02-56.98,2.54-6.3,2.36-5.84,2.61-6.47c8.83,2.01,17.09,5.92,24.17,11.37Z"/>
    <path class="cls-3" d="M250.6,193.65l-24.73,9.99h0l-24.85-61.51-2.45-6.07h0s-2.68-6.64-2.68-6.64h0c7.06-5.55,15.31-9.49,24.13-11.47l2.61,6.47,2.36,5.84,25.61,63.38Z"/>
    <path class="cls-3" d="M254.64,203.64h-28.77l-24.85-61.51-2.46-6.07h0s-2.67-6.64-2.67-6.64c7.06-5.55,15.31-9.49,24.13-11.47l2.61,6.47,2.36,5.84,25.61,63.38,4.04,10Z"/>
    <path class="cls-3" d="M217.68,112.18c-8.7,2.1-16.97,5.95-24.2,11.31l-6.7-16.59-10.66-26.37-17.37,42.99c-7.25-5.27-15.52-9.09-24.23-11.22l8.91-22.07,14.54-35.99h36.3s17.24,42.67,17.24,42.67l6.17,15.27Z"/>
    <path class="cls-3" d="M179.82,175.69c0-.32-.01-.64-.03-.96,0-.32-.02-.64-.03-.96-.01-.29-.04-.58-.06-.88l-.07-1c-.03-.3-.05-.6-.07-.9v-.11c-.05-.27-.07-.55-.11-.82-.03-.29-.07-.56-.1-.84-.04-.34-.09-.68-.14-1.01-.1-.67-.2-1.34-.33-2.01-.07-.33-.13-.67-.19-1-.26-1.33-.58-2.65-.94-3.98-.1-.38-.21-.77-.32-1.15-.11-.37-.22-.76-.35-1.13-.17-.53-.35-1.07-.53-1.61-.07-.22-.15-.43-.23-.64-.55-1.51-1.14-2.97-1.79-4.41l-.19-.43c-.13-.26-.25-.53-.38-.8,0,0,0-.01-.02-.04-.12-.25-.24-.5-.37-.75-.06-.12-.11-.23-.15-.32-.01-.02-.03-.05-.04-.07l-.04-.08c-2.7-5.26-6.12-10.03-10.12-14.2-.15-.16-.31-.33-.47-.48-.23-.24-.47-.48-.72-.72-1.79-1.77-3.68-3.42-5.67-4.94-7.09-5.45-15.34-9.36-24.17-11.37-9.02-2.05-18.64-2.13-28.2.12-.48.11-.97.23-1.45.36-.56.15-1.05.29-1.52.42-.04,0-.07.02-.13.04-3.64,1.04-7.14,2.42-10.45,4.06-.22.1-.46.21-.66.32-.95.48-1.87.98-2.78,1.51h0c-5.04,2.93-9.63,6.54-13.62,10.75h0c-.2.22-.4.43-.6.65-.31.33-.6.64-.88.98-.17.19-.34.37-.49.55-2.57,2.97-4.85,6.22-6.81,9.69-1.04,1.86-2.01,3.77-2.85,5.73-2.61,6.05-4.21,12.53-4.7,19.07-.03.25-.04.5-.06.74-.03.53-.05,1.06-.07,1.58,0,.06,0,.12-.02.18v.43c0,.23,0,.45-.01.68-.01.3-.01.6-.01.89s0,.57.01.87c0,.31.01.64.02.96,0,.16,0,.31.01.47,0,.42.04.83.06,1.26l.05.5.04.66v.12l.03.31.02.5h.03c.02.18.04.37.06.56.04.4.09.8.14,1.2.08.67.18,1.34.29,2.01.17,1.01.36,2,.58,3,.07.34.15.66.23,1,.05.24.1.47.16.7.11.43.22.85.34,1.28.1.39.2.76.33,1.14.1.39.23.76.34,1.15.12.4.25.79.38,1.19.1.28.2.58.31.86.31.88.64,1.75.99,2.61.13.31.25.61.39.91.09.22.18.44.29.66.06.14.12.29.18.44l.1.18.37.81.1.23h.02s.04.09.07.13c.07.16.21.42.32.66.01.02.02.04.03.06,0,0,0,.01,0,.02l.2.39h.05c1.97-1.29,3.9-2.64,5.76-4.08h0s.01-.02.02-.02c0,0,.02-.01.04-.01.98-.77,1.98-1.54,2.93-2.35h0c.42-.36.83-.72,1.26-1.09,1.31-1.15,2.59-2.33,3.81-3.55.4-.39.8-.79,1.18-1.19.91-.94,1.77-1.87,2.64-2.83,1.02-1.15,1.99-2.32,2.95-3.52.97-1.21,1.89-2.45,2.79-3.71.17-.24.34-.48.5-.73,1.29-1.85,2.5-3.74,3.62-5.68.25-.46.53-.91.78-1.38.73-1.3,1.43-2.64,2.09-3.98.79-1.6,1.51-3.21,2.19-4.85.52-1.26,1.01-2.53,1.47-3.82.29-.77.54-1.54.79-2.33.36-1.12.7-2.25,1-3.38.15-.48.29-.96.4-1.45.42-1.62.79-3.26,1.1-4.89.46-2.37.82-4.77,1.08-7.17.08-.89.16-1.77.22-2.66.03-.48.06-.95.07-1.43.01-.07.02-.16.02-.23.05-.88.08-1.76.1-2.64,0-.5,0-1,0-1.49,0-.58,0-1.15-.02-1.73-.04,0-.07.02-.11.04-.37.14-.76.26-1.13.41-.39.14-.76.28-1.13.42-1.07.44-2.12.9-3.18,1.4-.92.44-1.83.92-2.74,1.43-.24.14-.49.28-.72.42-.25.14-.48.29-.73.44-.04.02-.08.04-.12.07-.24.15-.49.31-.74.47-.26.16-.51.34-.77.5-.16.11-.32.22-.49.33-.02.01-.02.02-.03.02-.34.23-.66.45-.97.69-.28.19-.54.38-.8.58-.25.2-.53.4-.78.6-.28.21-.55.44-.82.66-.03.01-.04.02-.06.04-.44.36-.88.73-1.32,1.12-.05.05-.11.1-.16.15-.13.11-.26.23-.38.34-.16.14-.31.28-.46.42-.15.15-.3.29-.46.44-.15.14-.3.29-.44.42-.15.15-.31.3-.46.45-.14.14-.27.29-.42.44-.14.16-.29.31-.44.46-.12.12-.24.25-.34.37-.06.06-.12.12-.18.19-.24.27-.49.54-.74.82-.13.14-.25.29-.37.44-.04.04-.06.07-.1.1-.22.25-.43.51-.64.76-.2.26-.42.52-.61.77-.2.26-.4.51-.6.78-.22.3-.46.62-.68.94,0,.01,0,.02-.02.04-.12.16-.23.32-.34.48-.17.25-.34.51-.51.77-.16.23-.32.48-.47.72,0,0,0,0,0,.01-.17.27-.34.54-.52.81-.15.24-.29.48-.42.72-.52.88-1,1.77-1.45,2.68-.51,1.02-.99,2.05-1.43,3.1-.3.74-.59,1.49-.85,2.23-.12.31-.22.64-.32.94-.04.1-.07.19-.1.29-.1.31-.2.62-.3.94-.12.37-.23.76-.34,1.14-.09.37-.19.74-.28,1.1,0,0,0,.01-.01.02-.09.37-.18.74-.26,1.11t-.01.02c-.07.35-.14.69-.21,1.02,0,.06-.02.12-.02.19-.02.09-.04.19-.06.29-.01.09-.04.18-.05.28-1.43-9.5,1.23-19.48,7.98-27.22-.03.03-.06.05-.1.07-.03.03-.05.05-.09.08-.09.08-.18.15-.28.23,1.84-2.04,3.83-3.94,5.97-5.68,2.13-1.74,4.4-3.31,6.8-4.71,1.75-1.03,3.58-1.95,5.46-2.78.24-.12.49-.22.73-.31.25-.11.49-.21.74-.32.08-.04.16-.07.25-.1.37-.15.76-.3,1.13-.44.73-.28,1.47-.55,2.21-.79.48-.16.97-.31,1.47-.47.66-.2,1.34-.39,2.02-.57.56-.14,1.13-.29,1.71-.42.15-.03.29-.06.44-.09.51-.12.99-.21,1.49-.31.23-.04.44-.08.66-.12,3.28-.59,6.55-.88,9.77-.89h.41c3.65.02,7.24.4,10.73,1.11,8.93,1.82,17.22,5.81,24.09,11.58l.72.61s0,0,.03.01c.2.16.4.34.6.53.16.14.34.3.5.47.67.61,1.32,1.23,1.94,1.88,3.97,4.02,7.33,8.72,9.89,13.94.05.1.1.21.15.32.01.01.01.03.01.05.54,1.1,1.04,2.24,1.5,3.41.73,1.83,1.37,3.73,1.9,5.66,1.24,4.61,1.84,9.23,1.84,13.8h7.09v-.08c0-.35,0-.7,0-1.03Z"/>
  </g>
  <path class="cls-4" d="M164.56,8.44l-26.26,9.77C72.28,49.44,29.26,122.98,45.55,196.62h-20.09C11.3,108.91,76.54,19.03,164.56,8.44Z"/>
  <g class="cls-2">
    <path class="cls-4" d="M193.67,30.3c0-9.2,2.17-20.89,5.79-24.51l3.57,3.57c-1.76,1.76-4.31,10.79-4.31,20.94,0,32.48,23.09,42.96,38.38,49.89,5.1,2.31,9.12,4.14,11.38,6.4s4.09,6.28,6.4,11.38c6.93,15.29,17.41,38.38,49.89,38.38,10.15,0,19.18-2.55,20.94-4.31l3.57,3.57c-3.62,3.63-15.31,5.79-24.51,5.79-35.74,0-47.47-25.87-54.49-41.34-2.02-4.45-3.77-8.3-5.38-9.9-1.61-1.61-5.45-3.35-9.9-5.38-15.47-7.01-41.34-18.75-41.34-54.49"/>
    <path class="cls-4" d="M198.09,10.71c0-2.11.36-3.92,1.37-4.92l3.57,3.57c.18-.18.24-.33.24-.33-.43,1.1-.05,6.57,2.27,13.52,8.26,24.77,28.54,38.64,41.97,47.82,4.31,2.95,7.71,5.28,9.81,7.38,2.1,2.1,4.43,5.5,7.38,9.81,9.17,13.42,23.05,33.71,47.82,41.97,6.95,2.32,12.42,2.7,13.52,2.27,0,0-.15.06-.33.24l3.57,3.57c-3.53,3.52-16.86-.78-18.37-1.28-26.38-8.8-41.42-30.77-50.39-43.91-2.68-3.93-5.01-7.33-6.78-9.09-1.77-1.77-5.17-4.09-9.09-6.78-13.14-8.98-35.11-24.01-43.91-50.39-.36-1.08-2.65-8.19-2.65-13.44"/>
    <polyline class="cls-4" points="199.46 9.36 203.03 5.79 329.28 132.04 325.71 135.61 199.46 9.36"/>
    <path class="cls-4" d="M199.46,5.79c3.52-3.53,16.86.78,18.37,1.28,26.38,8.8,41.42,30.77,50.39,43.91,2.68,3.93,5.01,7.33,6.78,9.09,1.77,1.77,5.17,4.09,9.09,6.78,13.14,8.98,35.11,24.01,43.91,50.39.5,1.51,4.81,14.84,1.28,18.37l-3.57-3.57c-.18.18-.24.33-.24.33.43-1.1.05-6.57-2.27-13.52-8.26-24.77-28.54-38.64-41.97-47.82-4.31-2.95-7.71-5.28-9.81-7.38-2.1-2.1-4.43-5.5-7.38-9.81-9.18-13.42-23.05-33.71-47.82-41.97-6.95-2.32-12.42-2.7-13.52-2.27,0,0,.15-.06.33-.24l-3.57-3.57"/>
    <path class="cls-4" d="M199.46,5.79C203.08,2.17,214.77,0,223.97,0,259.7,0,271.44,25.87,278.45,41.34c2.02,4.45,3.77,8.3,5.38,9.9,1.61,1.61,5.45,3.35,9.9,5.38,15.47,7.01,41.34,18.75,41.34,54.49,0,9.2-2.16,20.89-5.79,24.51l-3.57-3.57c1.76-1.76,4.31-10.79,4.31-20.94,0-32.47-23.09-42.96-38.38-49.89-5.1-2.31-9.12-4.14-11.38-6.4-2.26-2.26-4.09-6.28-6.4-11.38-6.93-15.29-17.42-38.38-49.89-38.38-10.15,0-19.18,2.55-20.94,4.31l-3.57-3.57"/>
    <path class="cls-4" d="M230.15,15.67c3.01-6.26,8.93-10.47,15.83-11.25l.57,5.02c-5.17.58-9.6,3.74-11.86,8.42l-4.55-2.19"/>
    <path class="cls-4" d="M242.94,25.37c3.89-6.87,11.45-10.58,19.27-9.46l-.73,5c-5.73-.83-11.29,1.89-14.14,6.94l-4.4-2.49"/>
    <path class="cls-4" d="M235.09,30.81c1.69-4.08,5.62-6.73,10.04-6.73v5.05c-2.37,0-4.47,1.41-5.37,3.59l-4.68-1.91"/>
    <path class="cls-4" d="M222.71,47.12c.03-5.11,3.27-9.74,8.07-11.5l1.76,4.73c-2.84,1.05-4.75,3.78-4.77,6.8l-5.05-.03"/>
    <path class="cls-4" d="M236.82,57.68c0-7.18,5.03-13.33,12.13-14.71l.96,4.95c-4.8.94-8.2,5.26-8.04,10.07l-5.05.16v-.47"/>
    <path class="cls-4" d="M260.06,33.77c2.94-2.92,6.83-4.53,10.96-4.53v5.05c-2.79,0-5.41,1.08-7.39,3.06l-3.57-3.58"/>
    <path class="cls-4" d="M224.53,78c.51-6.33,4.08-12.05,9.53-15.32l2.59,4.33c-4.05,2.43-6.71,6.69-7.08,11.39l-5.04-.4"/>
    <path class="cls-4" d="M210.05,65.62c0-6.52,3.44-12.66,9.23-16.04l2.54,4.36c-5.03,2.94-7.61,8.74-6.44,14.44l-4.94,1.03c-.26-1.26-.39-2.53-.39-3.79"/>
    <path class="cls-4" d="M206.82,36.24c0-6.73,5-12.57,11.76-13.49l.69,5.01c-4.45.61-7.7,4.56-7.38,9.06l-5.04.35c-.02-.31-.03-.62-.03-.93"/>
    <path class="cls-4" d="M196.93,48.86c0-7,4.96-13.05,11.97-14.35l.92,4.97c-4.87.9-8.2,5.3-7.8,10.24l-5.03.43c-.04-.43-.06-.86-.06-1.29"/>
    <path class="cls-4" d="M282.58,69.11c1.82-3.15,5.08-5.23,8.71-5.55l.45,5.03c-1.99.18-3.79,1.32-4.79,3.06l-4.37-2.53"/>
    <path class="cls-4" d="M297.38,80.63c3.25-7.69,11.81-11.93,19.9-9.85l-1.25,4.89c-5.7-1.46-11.72,1.52-14.01,6.93l-4.65-1.97"/>
    <path class="cls-4" d="M284.45,92.55c1.91-6.94,7.73-12.2,14.83-13.41l.85,4.97c-5.18.89-9.42,4.72-10.81,9.78l-4.87-1.34"/>
    <path class="cls-4" d="M311.15,94.84c1.47-3.6,4.43-6.35,8.13-7.55,3.71-1.2,7.72-.72,11.03,1.34l-2.67,4.28c-2.03-1.26-4.51-1.57-6.8-.83-2.28.75-4.1,2.44-5.01,4.67l-4.68-1.91"/>
    <path class="cls-4" d="M304,100.68c1.81-3.48,4.99-6.14,8.74-7.3l1.49,4.83c-2.47.76-4.56,2.51-5.74,4.79l-4.49-2.33"/>
    <path class="cls-4" d="M285.62,118.55c.63-7.49,6.24-13.65,13.63-14.99l.9,4.96c-5.15.94-9.05,5.24-9.5,10.46l-5.03-.42"/>
    <path class="cls-4" d="M274.09,131.07c.71-7.39,6.29-13.46,13.59-14.8l.91,4.97c-5.09.93-8.98,5.16-9.47,10.3l-5.03-.47"/>
    <path class="cls-4" d="M310.02,118c1.78-5.63,6.93-9.42,12.84-9.42v5.05c-3.69,0-6.91,2.37-8.03,5.89l-4.81-1.52"/>
    <path class="cls-4" d="M299.64,127.64c.74-6.5,6.23-11.41,12.78-11.41v5.05c-3.97,0-7.32,2.99-7.77,6.93l-5.01-.57"/>
    <path class="cls-4" d="M265.87,110.77c.9-6.8,5.72-12.44,12.31-14.37l1.42,4.84c-4.67,1.37-8.09,5.38-8.73,10.2l-5-.67"/>
    <path class="cls-4" d="M295.81,134.39c0-.73.08-1.46.25-2.19.62-2.74,2.4-5.11,4.86-6.48l2.45,4.42c-1.21.67-2.08,1.83-2.39,3.19-.3,1.35-.02,2.77.78,3.9l-4.11,2.93c-1.2-1.7-1.83-3.71-1.83-5.76"/>
  </g>
</svg>